<svg xmlns="http://www.w3.org/2000/svg" width="20" height="20" viewBox="0 0 20 20">
  <defs>
    <style>
      .cls-1 {
        fill: #fff;
        fill-rule: evenodd;
      }
    </style>
  </defs>
  <path id="Чербокс_выкл." data-name="Чербокс выкл." class="cls-1" d="M395.146,290.014h11.708a4.16,4.16,0,0,1,4.16,4.161v11.65a4.16,4.16,0,0,1-4.16,4.161H395.146a4.161,4.161,0,0,1-4.161-4.161v-11.65A4.161,4.161,0,0,1,395.146,290.014ZM395,291h12a3,3,0,0,1,3,3v12a3,3,0,0,1-3,3H395a3,3,0,0,1-3-3V294A3,3,0,0,1,395,291Z" transform="translate(-391 -290)"/>
</svg>
